<mxfile host="app.diagrams.net" modified="2024-02-10T23:03:07.693Z" agent="Mozilla/5.0 (Windows NT 10.0; Win64; x64) AppleWebKit/537.36 (KHTML, like Gecko) Chrome/121.0.0.0 Safari/537.36" version="23.1.2" etag="2iejQ4lRGOHz7__uacsn" type="github">
  <diagram name="Page-1" id="WxYNuzR10Bx6IO7obS8N">
    <mxGraphModel>
      <root>
        <mxCell id="0" />
        <mxCell id="1" parent="0" />
      </root>
    </mxGraphModel>
  </diagram>
</mxfile>
